<?xml version="1.0" encoding="UTF-8" standalone="no"?>
<svg
   xmlns:dc="http://purl.org/dc/elements/1.1/"
   xmlns:cc="http://creativecommons.org/ns#"
   xmlns:rdf="http://www.w3.org/1999/02/22-rdf-syntax-ns#"
   xmlns:svg="http://www.w3.org/2000/svg"
   xmlns="http://www.w3.org/2000/svg"
   version="1.1"
   id="svg3211"
   height="60"
   width="150">
  <defs
     id="defs3213" />
  <metadata
     id="metadata3216">
    <rdf:RDF>
      <cc:Work
         rdf:about="">
        <dc:format>image/svg+xml</dc:format>
        <dc:type
           rdf:resource="http://purl.org/dc/dcmitype/StillImage" />
        <dc:title></dc:title>
      </cc:Work>
    </rdf:RDF>
  </metadata>
  <g
     transform="translate(0,-992.36217)"
     id="layer1">
    <rect
       ry="0.30277389"
       y="997.94678"
       x="0.92397308"
       height="7.1320076"
       width="38.51284"
       id="rect3007-1"
       style="color:#000000;display:inline;overflow:visible;visibility:visible;fill:#414343;fill-opacity:1;fill-rule:nonzero;stroke:none;stroke-width:1;marker:none;enable-background:accumulate" />
    <rect
       ry="0.30277389"
       y="1009.7146"
       x="0.92397308"
       height="7.1320076"
       width="21.094475"
       id="rect3007-1-4"
       style="color:#000000;display:inline;overflow:visible;visibility:visible;fill:#414343;fill-opacity:1;fill-rule:nonzero;stroke:none;stroke-width:1;marker:none;enable-background:accumulate" />
    <rect
       ry="0.30277389"
       y="1024.7761"
       x="0.92397308"
       height="7.1320076"
       width="38.51284"
       id="rect3007-1-8"
       style="color:#000000;display:inline;overflow:visible;visibility:visible;fill:#414343;fill-opacity:1;fill-rule:nonzero;stroke:none;marker:none;enable-background:accumulate" />
    <rect
       ry="0.30277389"
       y="1036.5439"
       x="0.92397308"
       height="7.1320076"
       width="28.715008"
       id="rect3007-1-4-2"
       style="color:#000000;display:inline;overflow:visible;visibility:visible;fill:#414343;fill-opacity:1;fill-rule:nonzero;stroke:none;marker:none;enable-background:accumulate" />
    <g
       id="text3147"
       style="font-style:normal;font-variant:normal;font-weight:normal;font-stretch:normal;font-size:45.14803314px;line-height:125%;font-family:'Ubuntu Light';-inkscape-font-specification:'Ubuntu Light,';text-align:start;letter-spacing:0px;word-spacing:0px;writing-mode:lr-tb;text-anchor:start;fill:#414343;fill-opacity:1;stroke:none">
      <path
         id="path4153"
         style="fill:#414343;fill-opacity:1"
         d="m 69.549803,1044.0851 q -2.483142,0 -5.011432,-0.1806 -2.52829,-0.1355 -4.424507,-0.6321 l 0,-30.3846 q 0.993257,-0.1806 2.121957,-0.3161 1.128701,-0.1806 2.30255,-0.2709 1.173849,-0.09 2.30255,-0.1354 1.173849,-0.045 2.212253,-0.045 2.844327,0 5.28232,0.4514 2.437994,0.4064 4.198767,1.3996 1.805922,0.9933 2.799178,2.6186 0.993257,1.6253 0.993257,4.0182 0,2.2122 -1.083553,3.7924 -1.038404,1.5802 -2.934622,2.5283 2.844326,0.9481 4.198767,2.7992 1.354441,1.8511 1.354441,4.6954 0,4.8308 -3.521546,7.2688 -3.521547,2.3929 -10.79038,2.3929 z m -3.837583,-14.4474 0,9.5262 q 0.948109,0.09 2.031662,0.1355 1.083552,0.045 1.986513,0.045 1.760773,0 3.250658,-0.2257 1.535033,-0.2258 2.618586,-0.7675 1.128701,-0.587 1.760774,-1.5351 0.67722,-0.9481 0.67722,-2.438 0,-2.6637 -1.941365,-3.7021 -1.941366,-1.0384 -5.372616,-1.0384 l -5.011432,0 z m 0,-4.4697 4.018175,0 q 3.250658,0 5.101728,-0.9029 1.851069,-0.9481 1.851069,-3.341 0,-2.2574 -1.941365,-3.2055 -1.896218,-0.9481 -4.966284,-0.9481 -1.309293,0 -2.347698,0.045 -0.993256,0.045 -1.715625,0.1355 l 0,8.2169 z" />
      <path
         id="path4155"
         style="fill:#414343;fill-opacity:1"
         d="m 97.688315,1044.1754 q -2.437994,-0.045 -4.063323,-0.5418 -1.580181,-0.4966 -2.52829,-1.3996 -0.948109,-0.9481 -1.354441,-2.3026 -0.361184,-1.3995 -0.361184,-3.1603 l 0,-27.1791 5.462912,-0.903 0,27.0437 q 0,0.9932 0.135444,1.6705 0.180592,0.6772 0.586924,1.1738 0.406332,0.4515 1.083553,0.7224 0.722368,0.2257 1.805921,0.3612 l -0.767516,4.5148 z" />
      <path
         id="path4157"
         style="fill:#414343;fill-opacity:1"
         d="m 124.22971,1031.8951 q 0,2.7992 -0.81266,5.1017 -0.81266,2.3026 -2.30255,3.9279 -1.48988,1.6253 -3.61184,2.5283 -2.07681,0.9029 -4.6051,0.9029 -2.52829,0 -4.6051,-0.9029 -2.07681,-0.903 -3.5667,-2.5283 -1.48988,-1.6253 -2.34769,-3.9279 -0.81267,-2.3025 -0.81267,-5.1017 0,-2.7992 0.81267,-5.0566 0.85781,-2.3025 2.34769,-3.9279 1.53504,-1.6253 3.61185,-2.4831 2.07681,-0.903 4.55995,-0.903 2.48314,0 4.55995,0.903 2.12196,0.8578 3.61184,2.4831 1.48989,1.6254 2.30255,3.9279 0.85781,2.2574 0.85781,5.0566 z m -5.59835,0 q 0,-3.5216 -1.53503,-5.5532 -1.48989,-2.0768 -4.19877,-2.0768 -2.70888,0 -4.24392,2.0768 -1.48988,2.0316 -1.48988,5.5532 0,3.5667 1.48988,5.6435 1.53504,2.0768 4.24392,2.0768 2.70888,0 4.19877,-2.0768 1.53503,-2.0768 1.53503,-5.6435 z" />
      <path
         id="path4159"
         style="fill:#414343;fill-opacity:1"
         d="m 134.14676,1031.3082 q 0,3.4764 1.48989,5.1017 1.53503,1.5802 3.92788,1.5802 1.30929,0 2.43799,-0.3612 1.17385,-0.3612 1.89622,-0.8578 l 0,-12.2351 q -0.58693,-0.1355 -1.44474,-0.2258 -0.85781,-0.1354 -2.1671,-0.1354 -2.97977,0 -4.55996,1.9865 -1.58018,1.9414 -1.58018,5.1469 z m 15.21489,10.0228 q 0,5.6435 -2.88947,8.2621 -2.84433,2.6186 -8.75872,2.6186 -2.16711,0 -4.24392,-0.3612 -2.03166,-0.3612 -3.70214,-0.9481 l 0.99326,-4.6502 q 1.39959,0.5869 3.16036,0.9481 1.80592,0.3612 3.88273,0.3612 3.29581,0 4.6954,-1.3545 1.39959,-1.3544 1.39959,-4.0182 l 0,-0.9029 q -0.81267,0.4063 -2.16711,0.8126 -1.30929,0.4064 -3.02492,0.4064 -2.2574,0 -4.15361,-0.7224 -1.85107,-0.7224 -3.20551,-2.1219 -1.3093,-1.3996 -2.07681,-3.4764 -0.72237,-2.122 -0.72237,-4.876 0,-2.5735 0.76751,-4.7406 0.81267,-2.1671 2.30255,-3.7021 1.53504,-1.535 3.70214,-2.3929 2.16711,-0.8578 4.92114,-0.8578 2.66373,0 5.05658,0.4064 2.39284,0.4063 4.06332,0.8578 l 0,20.452 z" />
    </g>
    <g
       id="text3147-1"
       style="font-style:normal;font-variant:normal;font-weight:normal;font-stretch:normal;font-size:20.55508614px;line-height:125%;font-family:'Ubuntu Light';-inkscape-font-specification:'Ubuntu Light,';text-align:start;letter-spacing:0px;word-spacing:0px;writing-mode:lr-tb;text-anchor:start;fill:#414343;fill-opacity:1;stroke:none">
      <path
         id="path4150"
         style="fill:#414343;fill-opacity:1"
         d="m 73.847699,1007.0435 q -0.287772,-0.8427 -0.596098,-1.6649 -0.308326,-0.8222 -0.596097,-1.6856 l -6.002085,0 q -0.287772,0.8634 -0.596098,1.7061 -0.287771,0.8222 -0.575542,1.6444 l -2.692717,0 q 0.801649,-2.2816 1.521077,-4.2138 0.719428,-1.9322 1.397746,-3.65878 0.698873,-1.72663 1.37719,-3.28881 0.678318,-1.56219 1.397746,-3.08327 l 2.446055,0 q 0.719428,1.52108 1.397746,3.08327 0.678318,1.56218 1.356636,3.28881 0.698873,1.72658 1.418301,3.65878 0.739983,1.9322 1.541631,4.2138 l -2.795491,0 z m -4.193238,-11.49028 q -0.472767,1.08942 -1.089419,2.65161 -0.596098,1.56219 -1.253861,3.39157 l 4.68656,0 q -0.657763,-1.82938 -1.274415,-3.41212 -0.616653,-1.58275 -1.068865,-2.63106 z" />
    </g>
  </g>
</svg>
