<?xml version="1.0" encoding="UTF-8" standalone="no"?>
<!-- Created with Inkscape (http://www.inkscape.org/) -->

<svg
   xmlns:dc="http://purl.org/dc/elements/1.1/"
   xmlns:cc="http://creativecommons.org/ns#"
   xmlns:rdf="http://www.w3.org/1999/02/22-rdf-syntax-ns#"
   xmlns:svg="http://www.w3.org/2000/svg"
   xmlns="http://www.w3.org/2000/svg"
   xmlns:sodipodi="http://sodipodi.sourceforge.net/DTD/sodipodi-0.dtd"
   xmlns:inkscape="http://www.inkscape.org/namespaces/inkscape"
   width="100"
   height="100"
   viewBox="0 0 26.458333 26.458333"
   version="1.1"
   id="svg8"
   sodipodi:docname="user-settings.svg"
   inkscape:version="0.92.1 r15371">
  <defs
     id="defs2" />
  <sodipodi:namedview
     id="base"
     pagecolor="#f0f0f0"
     bordercolor="#666666"
     borderopacity="1.0"
     inkscape:pageopacity="0"
     inkscape:pageshadow="2"
     inkscape:zoom="4"
     inkscape:cx="80.906491"
     inkscape:cy="61.65083"
     inkscape:document-units="px"
     inkscape:current-layer="layer1"
     showgrid="false"
     inkscape:window-width="1600"
     inkscape:window-height="837"
     inkscape:window-x="-8"
     inkscape:window-y="-8"
     inkscape:window-maximized="1"
     inkscape:snap-global="false"
     units="px" />
  <metadata
     id="metadata5">
    <rdf:RDF>
      <cc:Work
         rdf:about="">
        <dc:format>image/svg+xml</dc:format>
        <dc:type
           rdf:resource="http://purl.org/dc/dcmitype/StillImage" />
        <dc:title></dc:title>
      </cc:Work>
    </rdf:RDF>
  </metadata>
  <g
     inkscape:label="Layer 1"
     inkscape:groupmode="layer"
     id="layer1"
     transform="translate(0,-270.54167)">
    <path
       style="fill:none;fill-opacity:1;stroke:#ffffff;stroke-width:0.52916664;stroke-linecap:round;stroke-linejoin:round;stroke-miterlimit:4;stroke-dasharray:none;stroke-opacity:1"
       d="m 14.861868,275.80231 -0.970111,0.25537 0.867725,0.86777 -0.206672,0.77124 -0.771147,0.2066 -0.860568,-0.86061 -0.255418,0.93645 1.256722,1.26804 0.734818,-0.19341 3.027157,3.02725 a 0.88573968,0.88577146 0 0 0 1.252625,0 0.88573968,0.88577146 0 0 0 0,-1.25267 l -3.019695,-3.01979 0.201287,-0.73821 z"
       id="path5012"
       inkscape:connector-curvature="0" />
    <path
       style="fill:none;fill-opacity:1;stroke:#ffffff;stroke-width:2.5;stroke-linecap:round;stroke-linejoin:round;stroke-miterlimit:4;stroke-dasharray:none;stroke-opacity:1"
       d="m 45.646484,32.753906 c -2.923087,1.808934 -4.744071,5.288356 -4.748046,9.072266 6.26e-4,5.712154 4.073722,10.342262 9.097656,10.341797 5.023172,-7.61e-4 9.095077,-4.63051 9.095703,-10.341797 -0.0014,-0.284934 -0.0131,-0.569683 -0.03516,-0.853516"
       transform="matrix(0.26458333,0,0,0.26458333,0,270.54167)"
       id="path6217"
       inkscape:connector-curvature="0"
       sodipodi:nodetypes="ccccc" />
    <path
       style="fill:none;fill-opacity:1;stroke:#ffffff;stroke-width:0.66145831;stroke-linecap:round;stroke-linejoin:round;stroke-miterlimit:4;stroke-dasharray:none;stroke-opacity:1"
       d="m 13.229167,284.93038 a 4.0224061,2.7595576 0 0 0 -4.0224939,2.75952 4.0224061,2.7595576 0 0 0 0.2640666,0.9803 8.3722182,5.4432448 0 0 1 3.8199213,-0.60048 8.3722182,5.4432448 0 0 1 3.709335,0.57051 4.0224061,2.7595576 0 0 0 0.251664,-0.95033 4.0224061,2.7595576 0 0 0 -4.022493,-2.75952 z"
       id="path6172"
       inkscape:connector-curvature="0" />
  </g>
</svg>
