<?xml version="1.0" encoding="UTF-8" standalone="no"?>
<!-- Created with Inkscape (http://www.inkscape.org/) -->

<svg
   xmlns:dc="http://purl.org/dc/elements/1.1/"
   xmlns:cc="http://creativecommons.org/ns#"
   xmlns:rdf="http://www.w3.org/1999/02/22-rdf-syntax-ns#"
   xmlns:svg="http://www.w3.org/2000/svg"
   xmlns="http://www.w3.org/2000/svg"
   xmlns:sodipodi="http://sodipodi.sourceforge.net/DTD/sodipodi-0.dtd"
   xmlns:inkscape="http://www.inkscape.org/namespaces/inkscape"
   width="100"
   height="100"
   viewBox="0 0 26.458333 26.458333"
   version="1.1"
   id="svg8"
   sodipodi:docname="user-settings.svg"
   inkscape:version="0.92.1 r15371">
  <defs
     id="defs2" />
  <sodipodi:namedview
     id="base"
     pagecolor="#f0f0f0"
     bordercolor="#666666"
     borderopacity="1.0"
     inkscape:pageopacity="0"
     inkscape:pageshadow="2"
     inkscape:zoom="4"
     inkscape:cx="40.281491"
     inkscape:cy="61.65083"
     inkscape:document-units="px"
     inkscape:current-layer="layer1"
     showgrid="false"
     inkscape:window-width="1600"
     inkscape:window-height="837"
     inkscape:window-x="-8"
     inkscape:window-y="-8"
     inkscape:window-maximized="1"
     inkscape:snap-global="false"
     units="px" />
  <metadata
     id="metadata5">
    <rdf:RDF>
      <cc:Work
         rdf:about="">
        <dc:format>image/svg+xml</dc:format>
        <dc:type
           rdf:resource="http://purl.org/dc/dcmitype/StillImage" />
        <dc:title />
      </cc:Work>
    </rdf:RDF>
  </metadata>
  <g
     inkscape:label="Layer 1"
     inkscape:groupmode="layer"
     id="layer1"
     transform="translate(0,-270.54167)">
    <path
       style="fill:none;fill-opacity:1;stroke:#808080;stroke-width:0.52916664;stroke-linecap:round;stroke-linejoin:round;stroke-miterlimit:4;stroke-dasharray:none;stroke-opacity:1"
       d="m 14.332701,275.80231 -0.970111,0.25537 0.867725,0.86777 -0.206672,0.77124 -0.771147,0.2066 -0.860568,-0.86061 -0.255418,0.93645 1.256722,1.26804 0.734818,-0.19341 3.027157,3.02725 a 0.88573968,0.88577146 0 0 0 1.252625,0 0.88573968,0.88577146 0 0 0 0,-1.25267 l -3.019695,-3.01979 0.201287,-0.73821 z"
       id="path5012"
       inkscape:connector-curvature="0" />
    <path
       style="fill:none;fill-opacity:1;stroke:#808080;stroke-width:0.66145831;stroke-linecap:round;stroke-linejoin:round;stroke-miterlimit:4;stroke-dasharray:none;stroke-opacity:1"
       d="m 11.548132,279.20781 c -0.7734,0.47861 -1.255202,1.39921 -1.256254,2.40037 1.66e-4,1.51134 1.077839,2.73639 2.407088,2.73626 1.329048,-2e-4 2.406406,-1.22515 2.406572,-2.73626 -3.71e-4,-0.0754 -0.0035,-0.15073 -0.0093,-0.22583"
       id="path6217"
       inkscape:connector-curvature="0"
       sodipodi:nodetypes="ccccc" />
    <path
       style="fill:none;fill-opacity:1;stroke:#808080;stroke-width:0.66145831;stroke-linecap:round;stroke-linejoin:round;stroke-miterlimit:4;stroke-dasharray:none;stroke-opacity:1"
       d="m 12.7,284.93038 a 4.0224061,2.7595576 0 0 0 -4.0224936,2.75952 4.0224061,2.7595576 0 0 0 0.2640666,0.9803 8.3722182,5.4432448 0 0 1 3.819921,-0.60048 8.3722182,5.4432448 0 0 1 3.709335,0.57051 4.0224061,2.7595576 0 0 0 0.251664,-0.95033 A 4.0224061,2.7595576 0 0 0 12.7,284.93038 Z"
       id="path6172"
       inkscape:connector-curvature="0" />
  </g>
</svg>
