<?xml version="1.0" encoding="UTF-8" standalone="no"?>
<!-- Created with Inkscape (http://www.inkscape.org/) -->

<svg
   xmlns:dc="http://purl.org/dc/elements/1.1/"
   xmlns:cc="http://creativecommons.org/ns#"
   xmlns:rdf="http://www.w3.org/1999/02/22-rdf-syntax-ns#"
   xmlns:svg="http://www.w3.org/2000/svg"
   xmlns="http://www.w3.org/2000/svg"
   xmlns:sodipodi="http://sodipodi.sourceforge.net/DTD/sodipodi-0.dtd"
   xmlns:inkscape="http://www.inkscape.org/namespaces/inkscape"
   width="180"
   height="90"
   viewBox="0 0 47.625 23.8125"
   version="1.1"
   id="svg8"
   sodipodi:docname="27.svg"
   inkscape:version="0.92.1 r15371">
  <defs
     id="defs2" />
  <sodipodi:namedview
     id="base"
     pagecolor="#ffffff"
     bordercolor="#666666"
     borderopacity="1.0"
     inkscape:pageopacity="0.0"
     inkscape:pageshadow="2"
     inkscape:zoom="5.6568542"
     inkscape:cx="41.115509"
     inkscape:cy="46.35014"
     inkscape:document-units="px"
     inkscape:current-layer="layer1"
     showgrid="false"
     units="px"
     inkscape:window-width="1600"
     inkscape:window-height="837"
     inkscape:window-x="-8"
     inkscape:window-y="-8"
     inkscape:window-maximized="1"
     inkscape:snap-to-guides="true"
     inkscape:snap-grids="true"
     inkscape:snap-others="true"
     inkscape:object-nodes="false"
     inkscape:snap-nodes="true"
     inkscape:snap-global="false" />
  <metadata
     id="metadata5">
    <rdf:RDF>
      <cc:Work
         rdf:about="">
        <dc:format>image/svg+xml</dc:format>
        <dc:type
           rdf:resource="http://purl.org/dc/dcmitype/StillImage" />
        <dc:title />
      </cc:Work>
    </rdf:RDF>
  </metadata>
  <g
     inkscape:label="Layer 1"
     inkscape:groupmode="layer"
     id="layer1"
     transform="translate(0,-273.18749)">
    <path
       style="fill:#241f1c;stroke:none;stroke-width:0.45562765px;stroke-linecap:butt;stroke-linejoin:miter;stroke-opacity:1"
       d="m 17.564228,284.06075 c -4.967814,5.37324 -0.994887,6.17761 1.001215,6.39114 -0.6396,0.69926 -3.175573,2.69562 -5.217983,2.0114 -2.042411,-0.68422 -3.305364,-3.19251 -2.695685,-4.03654 1.062134,-1.4704 1.198239,-3.14172 1.198239,-3.94717 0,-0.80544 -1.836498,-1.24674 -1.855241,-3.24001 6.115062,-8.07893 11.758486,-1.70972 7.569455,2.82118 z"
       id="path4500"
       inkscape:connector-curvature="0"
       sodipodi:nodetypes="scssscs" />
    <path
       style="fill:#000000;fill-opacity:1;stroke:none;stroke-width:0.26458332px;stroke-linecap:butt;stroke-linejoin:miter;stroke-opacity:1"
       d="m 10.78177,286.41665 c -0.214691,1.0242 0.283961,4.42942 2.499843,5.45468 2.215885,1.02526 3.623348,-0.98224 3.623348,-0.98224 0,0 -3.014336,2.27441 -3.609649,-0.93366 -0.595312,-3.20807 0.52275,-2.32361 2.215886,-5.39089 3.268017,-5.92033 -2.923624,-6.76265 -4.729428,1.85211 z"
       id="path4508"
       inkscape:connector-curvature="0"
       sodipodi:nodetypes="sscsss" />
    <path
       style="fill:#ffb380;stroke-width:0.45642108"
       d="m 10.469811,277.50235 c 2.415624,-0.0781 3.517911,0.88051 4.299987,3.75317 0.782075,2.87264 0.07508,5.01104 -0.447395,6.40464 -0.522483,1.3936 -2.991416,3.07969 -4.334622,3.41521 -1.37653,-0.21351 -3.462973,-2.08476 -3.957406,-3.67775 -0.494434,-1.593 -0.409484,-3.48421 -0.003,-6.01177 0.406556,-2.52756 2.026747,-3.80531 4.442372,-3.8835 z"
       id="rect3682"
       inkscape:connector-curvature="0"
       sodipodi:nodetypes="czzczzzc" />
    <path
       style="fill:#e5915a;fill-opacity:1;stroke-width:0.45642108"
       d="m 9.474357,277.61513 c -1.861633,0.36473 -3.099098,1.60905 -3.446818,3.77083 -0.406494,2.52756 -0.49185,4.41852 0.0026,6.01152 0.494433,1.59299 2.581367,3.4643 3.957898,3.67781 0.34171,-0.0854 0.756368,-0.25884 1.193209,-0.49196 -1.374459,-0.30322 -3.348824,-2.10443 -3.82819,-3.64888 -0.494434,-1.593 -0.409078,-3.48395 -0.0026,-6.01151 0.257206,-1.59906 1.001092,-2.69649 2.123901,-3.30781 z"
       id="rect3682-1"
       inkscape:connector-curvature="0" />
    <path
       style="fill:#241f1c;stroke:none;stroke-width:0.45562765px;stroke-linecap:butt;stroke-linejoin:miter;stroke-opacity:1"
       d="m 5.972983,287.22029 c -0.243466,-1.4404 -1.419309,-8.33896 4.418479,-8.21434 1.798483,0.0384 3.960645,0.87915 4.473019,2.5218 0.02604,-0.7583 1.037637,-3.62084 -5.309715,-4.44504 -8.192881,-1.06384 -4.631327,8.04702 -3.581783,10.13758 z"
       id="path4498"
       inkscape:connector-curvature="0"
       sodipodi:nodetypes="cscsc" />
    <path
       style="fill:#c83737;stroke:none;stroke-width:0.63161862px;stroke-linecap:butt;stroke-linejoin:miter;stroke-opacity:1"
       d="m 9.8056271,289.54378 c -0.2866925,0.0144 -0.8815147,-0.34697 -0.8691049,-0.58008 0.6030538,0.16162 1.4999058,-0.0399 1.9114078,-0.18712 -0.25706,0.42984 -0.593497,0.74456 -1.0423029,0.76722 z"
       id="path3685"
       inkscape:connector-curvature="0"
       sodipodi:nodetypes="cccsc" />
    <path
       style="fill:#e5915a;fill-opacity:1;stroke:none;stroke-width:0.26458332px;stroke-linecap:butt;stroke-linejoin:miter;stroke-opacity:1"
       d="m 9.855729,284.36614 -0.463021,2.97656 0.926042,-0.0331 -1.488281,1.05833 c 0,0 0.396875,-2.48047 -0.826823,-3.37344 -1.223698,-0.89297 -2.567907,-0.43446 -2.050521,-1.42213 1.839702,-0.54754 3.902604,0.79378 3.902604,0.79378 z"
       id="path4542"
       inkscape:connector-curvature="0"
       sodipodi:nodetypes="ccccscc" />
    <path
       style="fill:#241f1c;stroke:none;stroke-width:0.45562765px;stroke-linecap:butt;stroke-linejoin:miter;stroke-opacity:1"
       d="m 6.018475,283.41684 c 1.52016,-0.39913 3.245247,0.48109 3.346526,0.62361 0.101271,0.1425 -0.24797,0.37655 -0.548065,0.21351 -1.052114,-0.57163 -1.932877,-0.78223 -2.780274,-0.583 -0.320344,0.0754 -0.240513,-0.19573 -0.01817,-0.25412 z"
       id="path4492"
       inkscape:connector-curvature="0"
       sodipodi:nodetypes="sssss" />
    <path
       style="fill:#e5915a;fill-opacity:1;stroke:none;stroke-width:0.26458332px;stroke-linecap:butt;stroke-linejoin:miter;stroke-opacity:1"
       d="m 11.412409,284.2078 c 0.493312,1.41444 3.021748,-0.054 3.086963,-0.39756 -0.257558,-0.24918 -2.582896,-0.38713 -3.086963,0.39756 z"
       id="path4544"
       inkscape:connector-curvature="0"
       sodipodi:nodetypes="ccc" />
    <path
       sodipodi:nodetypes="sssss"
       inkscape:connector-curvature="0"
       id="path4494"
       d="m 14.453232,283.61957 c -1.506471,-0.44803 -3.259098,0.37597 -3.364927,0.51516 -0.10582,0.13922 0.235675,0.38438 0.540879,0.23112 1.070035,-0.53733 1.957141,-0.7194 2.797661,-0.49287 0.317746,0.0858 0.246713,-0.18789 0.02633,-0.25341 z"
       style="fill:#241f1c;stroke:none;stroke-width:0.45562765px;stroke-linecap:butt;stroke-linejoin:miter;stroke-opacity:1" />
    <path
       style="fill:#241f1c;stroke:none;stroke-width:0.37703246px;stroke-linecap:butt;stroke-linejoin:miter;stroke-opacity:1"
       d="m 7.538331,284.36079 c -0.297563,0.12397 -0.117826,1.20178 0.212081,1.01326 0.304152,-0.17381 0.329851,-1.23914 -0.212081,-1.01326 z"
       id="path4504"
       inkscape:connector-curvature="0"
       sodipodi:nodetypes="sss" />
    <path
       sodipodi:nodetypes="sss"
       inkscape:connector-curvature="0"
       id="path4506"
       d="m 12.71681,284.46077 c -0.297563,0.12397 -0.117819,1.20177 0.212081,1.01326 0.304151,-0.17381 0.329851,-1.23914 -0.212081,-1.01326 z"
       style="fill:#241f1c;stroke:none;stroke-width:0.37703246px;stroke-linecap:butt;stroke-linejoin:miter;stroke-opacity:1" />
    <rect
       ry="0"
       y="273.1875"
       x="23.812496"
       height="23.8125"
       width="23.8125"
       id="rect4602"
       style="fill:#4cdbbe;fill-opacity:1;stroke:none;stroke-width:0.26458332" />
    <path
       sodipodi:nodetypes="scssscs"
       inkscape:connector-curvature="0"
       id="path4604"
       d="m 41.376728,284.06075 c -4.967814,5.37324 -1.27552,7.534 0.720582,7.74753 -0.6396,0.69926 -2.661079,1.9005 -4.703489,1.21628 -2.042411,-0.68422 -3.539225,-3.75378 -2.929546,-4.59781 1.062134,-1.4704 1.198239,-3.14172 1.198239,-3.94717 0,-0.80544 -1.836498,-1.24674 -1.855241,-3.24001 6.115062,-8.07893 11.758486,-1.70972 7.569455,2.82118 z"
       style="fill:#241f1c;stroke:none;stroke-width:0.45562765px;stroke-linecap:butt;stroke-linejoin:miter;stroke-opacity:1" />
    <path
       sodipodi:nodetypes="sscsss"
       inkscape:connector-curvature="0"
       id="path4606"
       d="m 34.59427,286.41665 c -0.214691,1.0242 0.330733,4.66328 2.546615,5.68854 2.215885,1.02526 3.108854,-2e-5 3.108854,-2e-5 0,0 -2.546614,1.05833 -3.141927,-2.14974 -0.595312,-3.20807 0.52275,-2.32361 2.215886,-5.39089 3.268017,-5.92033 -2.923624,-6.76265 -4.729428,1.85211 z"
       style="fill:#000000;fill-opacity:1;stroke:none;stroke-width:0.26458332px;stroke-linecap:butt;stroke-linejoin:miter;stroke-opacity:1" />
    <path
       sodipodi:nodetypes="czzczzzc"
       inkscape:connector-curvature="0"
       id="path4608"
       d="m 34.282311,277.50235 c 2.415624,-0.0781 3.517911,0.88051 4.299987,3.75317 0.782075,2.87264 0.07508,5.01104 -0.447395,6.40464 -0.522483,1.3936 -2.991416,3.07969 -4.334622,3.41521 -1.37653,-0.21351 -3.462973,-2.08476 -3.957406,-3.67775 -0.494434,-1.593 -0.409484,-3.48421 -0.003,-6.01177 0.406556,-2.52756 2.026747,-3.80531 4.442372,-3.8835 z"
       style="fill:#ffb380;stroke-width:0.45642108" />
    <path
       inkscape:connector-curvature="0"
       id="path4610"
       d="m 33.286857,277.61513 c -1.861633,0.36473 -3.099098,1.60905 -3.446818,3.77083 -0.406494,2.52756 -0.49185,4.41852 0.0026,6.01152 0.494433,1.59299 2.581367,3.4643 3.957898,3.67781 0.34171,-0.0854 1.598267,-0.72656 2.035108,-0.95968 -2.68408,0.63222 -4.845533,-1.35608 -5.324899,-3.60211 -0.34815,-1.63123 -0.362306,-3.25009 0.65221,-5.59056 0.912016,-1.6926 1.001092,-2.69649 2.123901,-3.30781 z"
       style="fill:#e5915a;fill-opacity:1;stroke-width:0.45642108"
       sodipodi:nodetypes="cccccscc" />
    <path
       sodipodi:nodetypes="cscsc"
       inkscape:connector-curvature="0"
       id="path4612"
       d="m 29.785483,287.22029 c -0.243466,-1.4404 -1.41931,-8.33896 4.418479,-8.21434 1.798483,0.0384 3.960645,0.87915 4.473019,2.5218 0.02604,-0.7583 1.037637,-3.62084 -5.309715,-4.44504 -8.192882,-1.06384 -4.631327,8.04702 -3.581783,10.13758 z"
       style="fill:#241f1c;stroke:none;stroke-width:0.45562765px;stroke-linecap:butt;stroke-linejoin:miter;stroke-opacity:1" />
    <path
       sodipodi:nodetypes="ccsc"
       inkscape:connector-curvature="0"
       id="path4614"
       d="m 30.894588,285.63233 c 1.959447,0.76966 4.447693,0.69809 6.496221,0.17669 -0.25706,0.42984 -1.247661,3.23336 -3.449978,3.19896 -1.914425,-0.0299 -2.818515,-2.35369 -3.046243,-3.37565 z"
       style="fill:#ffffff;stroke:none;stroke-width:0.63161862px;stroke-linecap:butt;stroke-linejoin:miter;stroke-opacity:1" />
    <path
       sodipodi:nodetypes="sssss"
       inkscape:connector-curvature="0"
       id="path4618"
       d="m 29.856301,282.9041 c 1.219064,-0.99201 3.153734,-0.9039 3.304882,-0.81602 0.151132,0.0879 -0.07007,0.44539 -0.410726,0.42103 -1.194324,-0.0854 -2.083344,0.087 -2.772516,0.61884 -0.260495,0.20112 -0.299923,-0.0788 -0.121625,-0.22386 z"
       style="fill:#241f1c;stroke:none;stroke-width:0.45562765px;stroke-linecap:butt;stroke-linejoin:miter;stroke-opacity:1" />
    <path
       style="fill:#241f1c;stroke:none;stroke-width:0.45562765px;stroke-linecap:butt;stroke-linejoin:miter;stroke-opacity:1"
       d="m 38.287635,283.18206 c -1.135901,-1.08624 -3.071416,-1.15303 -3.229108,-1.07749 -0.157699,0.0756 0.03425,0.44958 0.375761,0.45252 1.197327,0.0103 2.06974,0.2532 2.714205,0.8384 0.243555,0.22137 0.305274,-0.0546 0.139091,-0.21346 z"
       id="path4622"
       inkscape:connector-curvature="0"
       sodipodi:nodetypes="sssss" />
    <path
       sodipodi:nodetypes="sss"
       inkscape:connector-curvature="0"
       id="path4624"
       d="m 31.397603,283.15744 c -0.313671,0.0743 -0.134362,0.87105 0.278227,0.78175 0.342384,-0.0741 0.395997,-0.94148 -0.278227,-0.78175 z"
       style="fill:#241f1c;stroke:none;stroke-width:0.37703246px;stroke-linecap:butt;stroke-linejoin:miter;stroke-opacity:1" />
    <path
       style="fill:#241f1c;stroke:none;stroke-width:0.37703246px;stroke-linecap:butt;stroke-linejoin:miter;stroke-opacity:1"
       d="m 36.576082,283.25742 c -0.363709,-0.008 -0.547679,0.7674 -0.0525,0.74867 0.34554,-0.0131 0.639471,-0.73524 0.0525,-0.74867 z"
       id="path4626"
       inkscape:connector-curvature="0"
       sodipodi:nodetypes="sss" />
  </g>
</svg>
