<?xml version="1.0" encoding="UTF-8" standalone="no"?>
<!-- Created with Inkscape (http://www.inkscape.org/) -->

<svg
   xmlns:dc="http://purl.org/dc/elements/1.1/"
   xmlns:cc="http://creativecommons.org/ns#"
   xmlns:rdf="http://www.w3.org/1999/02/22-rdf-syntax-ns#"
   xmlns:svg="http://www.w3.org/2000/svg"
   xmlns="http://www.w3.org/2000/svg"
   xmlns:sodipodi="http://sodipodi.sourceforge.net/DTD/sodipodi-0.dtd"
   xmlns:inkscape="http://www.inkscape.org/namespaces/inkscape"
   width="270"
   height="90"
   viewBox="0 0 71.4375 23.8125"
   version="1.1"
   id="svg8"
   sodipodi:docname="27.svg"
   inkscape:version="0.92.1 r15371">
  <defs
     id="defs2" />
  <sodipodi:namedview
     id="base"
     pagecolor="#ffffff"
     bordercolor="#666666"
     borderopacity="1.0"
     inkscape:pageopacity="0.0"
     inkscape:pageshadow="2"
     inkscape:zoom="0.5"
     inkscape:cx="130.94771"
     inkscape:cy="33.996681"
     inkscape:document-units="px"
     inkscape:current-layer="layer1"
     showgrid="false"
     units="px"
     inkscape:window-width="1600"
     inkscape:window-height="837"
     inkscape:window-x="-8"
     inkscape:window-y="-8"
     inkscape:window-maximized="1"
     inkscape:snap-to-guides="true"
     inkscape:snap-grids="true"
     inkscape:snap-others="true"
     inkscape:object-nodes="false"
     inkscape:snap-nodes="true"
     inkscape:snap-global="false"
     showguides="true"
     inkscape:guide-bbox="true">
    <sodipodi:guide
       position="23.807033,21.842602"
       orientation="1,0"
       id="guide4522"
       inkscape:locked="false" />
    <sodipodi:guide
       position="47.660839,31.758302"
       orientation="1,0"
       id="guide4559"
       inkscape:locked="false" />
  </sodipodi:namedview>
  <metadata
     id="metadata5">
    <rdf:RDF>
      <cc:Work
         rdf:about="">
        <dc:format>image/svg+xml</dc:format>
        <dc:type
           rdf:resource="http://purl.org/dc/dcmitype/StillImage" />
        <dc:title></dc:title>
      </cc:Work>
    </rdf:RDF>
  </metadata>
  <g
     inkscape:label="Layer 1"
     inkscape:groupmode="layer"
     id="layer1"
     transform="translate(0,-273.18749)">
    <path
       style="fill:#241f1c;stroke:none;stroke-width:0.45562765px;stroke-linecap:butt;stroke-linejoin:miter;stroke-opacity:1"
       d="m 30.492538,281.14717 c 0.262004,8.20094 -3.033812,3.94664 -0.623144,3.98102 -1.188908,-1.65645 -4.496462,3.77365 1.713251,2.0002 0.752745,-0.21497 2.604731,-4.07831 1.995052,-4.92234 -1.062134,-1.4704 0.158154,-2.25305 0.158154,-3.0585 0,-0.80544 1.181688,-0.0774 1.200431,-2.0707 -2.560377,-0.2212 -4.531139,1.3348 -4.443744,4.07032 z"
       id="path4532"
       inkscape:connector-curvature="0"
       sodipodi:nodetypes="scssscs" />
    <path
       style="fill:#241f1c;stroke:none;stroke-width:0.45562765px;stroke-linecap:butt;stroke-linejoin:miter;stroke-opacity:1"
       d="m 18.357909,284.06075 c -4.967814,5.37324 -0.994887,6.17761 1.001215,6.39114 -0.6396,0.69926 -3.175573,2.69562 -5.217983,2.0114 -2.042411,-0.68422 -3.305364,-3.19251 -2.695685,-4.03654 1.062134,-1.4704 1.198239,-3.14172 1.198239,-3.94717 0,-0.80544 -1.836498,-1.24674 -1.855241,-3.24001 6.115062,-8.07893 11.758486,-1.70972 7.569455,2.82118 z"
       id="path4500"
       inkscape:connector-curvature="0"
       sodipodi:nodetypes="scssscs" />
    <path
       style="fill:#000000;fill-opacity:1;stroke:none;stroke-width:0.26458332px;stroke-linecap:butt;stroke-linejoin:miter;stroke-opacity:1"
       d="m 11.575451,286.41665 c -0.214691,1.0242 0.283961,4.42942 2.499843,5.45468 2.215885,1.02526 3.623348,-0.98224 3.623348,-0.98224 0,0 -3.014336,2.27441 -3.609649,-0.93366 -0.595312,-3.20807 0.52275,-2.32361 2.215886,-5.39089 3.268017,-5.92033 -2.923624,-6.76265 -4.729428,1.85211 z"
       id="path4508"
       inkscape:connector-curvature="0"
       sodipodi:nodetypes="sscsss" />
    <path
       style="fill:#ffb380;stroke-width:0.45642108"
       d="m 11.263492,277.50235 c 2.415624,-0.0781 3.517911,0.88051 4.299987,3.75317 0.782075,2.87264 0.07508,5.01104 -0.447395,6.40464 -0.522483,1.3936 -2.991416,3.07969 -4.334622,3.41521 -1.3765303,-0.21351 -3.4629733,-2.08476 -3.9574063,-3.67775 -0.494434,-1.593 -0.409484,-3.48421 -0.003,-6.01177 0.406556,-2.52756 2.026747,-3.80531 4.4423723,-3.8835 z"
       id="rect3682"
       inkscape:connector-curvature="0"
       sodipodi:nodetypes="czzczzzc" />
    <path
       style="fill:#e5915a;fill-opacity:1;stroke-width:0.45642108"
       d="m 10.268038,277.61513 c -1.8616333,0.36473 -3.0990983,1.60905 -3.4468183,3.77083 -0.406494,2.52756 -0.49185,4.41852 0.0026,6.01152 0.494433,1.59299 2.581367,3.4643 3.9578983,3.67781 0.34171,-0.0854 0.756368,-0.25884 1.193209,-0.49196 -1.374459,-0.30322 -3.3488243,-2.10443 -3.8281903,-3.64888 -0.494434,-1.593 -0.409078,-3.48395 -0.0026,-6.01151 0.257206,-1.59906 1.001092,-2.69649 2.1239013,-3.30781 z"
       id="rect3682-1"
       inkscape:connector-curvature="0" />
    <path
       style="fill:#241f1c;stroke:none;stroke-width:0.45562765px;stroke-linecap:butt;stroke-linejoin:miter;stroke-opacity:1"
       d="m 6.7666637,287.22029 c -0.243466,-1.4404 -1.419309,-8.33896 4.4184793,-8.21434 1.798483,0.0384 3.960645,0.87915 4.473019,2.5218 0.02604,-0.7583 1.037637,-3.62084 -5.309715,-4.44504 -8.1928813,-1.06384 -4.6313273,8.04702 -3.5817833,10.13758 z"
       id="path4498"
       inkscape:connector-curvature="0"
       sodipodi:nodetypes="cscsc" />
    <path
       style="fill:#c83737;stroke:none;stroke-width:0.63161862px;stroke-linecap:butt;stroke-linejoin:miter;stroke-opacity:1"
       d="m 10.599308,289.54378 c -0.286693,0.0144 -0.8815149,-0.34697 -0.8691051,-0.58008 0.6030541,0.16162 1.4999061,-0.0399 1.9114081,-0.18712 -0.25706,0.42984 -0.593497,0.74456 -1.042303,0.76722 z"
       id="path3685"
       inkscape:connector-curvature="0"
       sodipodi:nodetypes="cccsc" />
    <path
       style="fill:#e5915a;fill-opacity:1;stroke:none;stroke-width:0.26458332px;stroke-linecap:butt;stroke-linejoin:miter;stroke-opacity:1"
       d="m 10.64941,284.36614 -0.463021,2.97656 0.926042,-0.0331 -1.4882813,1.05833 c 0,0 0.3968753,-2.48047 -0.826823,-3.37344 -1.223698,-0.89297 -2.567907,-0.43446 -2.050521,-1.42213 1.839702,-0.54754 3.9026043,0.79378 3.9026043,0.79378 z"
       id="path4542"
       inkscape:connector-curvature="0"
       sodipodi:nodetypes="ccccscc" />
    <path
       style="fill:#241f1c;stroke:none;stroke-width:0.45562765px;stroke-linecap:butt;stroke-linejoin:miter;stroke-opacity:1"
       d="m 6.8121557,283.41684 c 1.52016,-0.39913 3.2452473,0.48109 3.3465263,0.62361 0.101271,0.1425 -0.2479703,0.37655 -0.5480653,0.21351 -1.052114,-0.57163 -1.932877,-0.78223 -2.780274,-0.583 -0.320344,0.0754 -0.240513,-0.19573 -0.01817,-0.25412 z"
       id="path4492"
       inkscape:connector-curvature="0"
       sodipodi:nodetypes="sssss" />
    <path
       style="fill:#e5915a;fill-opacity:1;stroke:none;stroke-width:0.26458332px;stroke-linecap:butt;stroke-linejoin:miter;stroke-opacity:1"
       d="m 12.20609,284.2078 c 0.493312,1.41444 3.021748,-0.054 3.086963,-0.39756 -0.257558,-0.24918 -2.582896,-0.38713 -3.086963,0.39756 z"
       id="path4544"
       inkscape:connector-curvature="0"
       sodipodi:nodetypes="ccc" />
    <path
       sodipodi:nodetypes="sssss"
       inkscape:connector-curvature="0"
       id="path4494"
       d="m 15.246913,283.61957 c -1.506471,-0.44803 -3.259098,0.37597 -3.364927,0.51516 -0.10582,0.13922 0.235675,0.38438 0.540879,0.23112 1.070035,-0.53733 1.957141,-0.7194 2.797661,-0.49287 0.317746,0.0858 0.246713,-0.18789 0.02633,-0.25341 z"
       style="fill:#241f1c;stroke:none;stroke-width:0.45562765px;stroke-linecap:butt;stroke-linejoin:miter;stroke-opacity:1" />
    <path
       style="fill:#241f1c;stroke:none;stroke-width:0.37703246px;stroke-linecap:butt;stroke-linejoin:miter;stroke-opacity:1"
       d="m 8.3320117,284.36079 c -0.297563,0.12397 -0.117826,1.20178 0.212081,1.01326 0.304152,-0.17381 0.329851,-1.23914 -0.212081,-1.01326 z"
       id="path4504"
       inkscape:connector-curvature="0"
       sodipodi:nodetypes="sss" />
    <path
       sodipodi:nodetypes="sss"
       inkscape:connector-curvature="0"
       id="path4506"
       d="m 13.510491,284.46077 c -0.297563,0.12397 -0.117819,1.20177 0.212081,1.01326 0.304151,-0.17381 0.329851,-1.23914 -0.212081,-1.01326 z"
       style="fill:#241f1c;stroke:none;stroke-width:0.37703246px;stroke-linecap:butt;stroke-linejoin:miter;stroke-opacity:1" />
    <path
       sodipodi:nodetypes="scssscs"
       inkscape:connector-curvature="0"
       id="path4604"
       d="m 42.964226,284.06075 c -6.082218,8.8833 1.743564,6.04571 -1.660668,4.38827 2.124351,-1.00164 3.056411,4.20715 -1.59936,4.02275 -2.100749,-0.0832 -4.262104,-3.20099 -3.652425,-4.04502 1.062134,-1.4704 1.198239,-3.14172 1.198239,-3.94717 0,-0.80544 -1.836498,-1.24674 -1.855241,-3.24001 6.115062,-8.07893 9.960623,-0.67121 7.569455,2.82118 z"
       style="fill:#241f1c;stroke:none;stroke-width:0.45562765px;stroke-linecap:butt;stroke-linejoin:miter;stroke-opacity:1" />
    <path
       sodipodi:nodetypes="sscsss"
       inkscape:connector-curvature="0"
       id="path4606"
       d="m 36.181768,286.41665 c -0.214691,1.0242 0.798479,4.36562 3.014361,5.39088 2.215885,1.02526 3.023809,-1.78596 3.023809,-1.78596 0,0 -2.019431,3.16185 -3.524628,-0.0661 -1.061606,-2.27668 0.52275,-2.32361 2.215886,-5.39089 3.268017,-5.92033 -2.923624,-6.76265 -4.729428,1.85211 z"
       style="fill:#000000;fill-opacity:1;stroke:none;stroke-width:0.26458332px;stroke-linecap:butt;stroke-linejoin:miter;stroke-opacity:1" />
    <path
       sodipodi:nodetypes="czzczzzc"
       inkscape:connector-curvature="0"
       id="path4608"
       d="m 35.869809,277.50235 c 2.415624,-0.0781 3.517911,0.88051 4.299987,3.75317 0.782075,2.87264 0.07508,5.01104 -0.447395,6.40464 -0.522483,1.3936 -2.991416,3.07969 -4.334622,3.41521 -1.37653,-0.21351 -3.462973,-2.08476 -3.957406,-3.67775 -0.494434,-1.593 -0.409484,-3.48421 -0.003,-6.01177 0.406556,-2.52756 2.026747,-3.80531 4.442372,-3.8835 z"
       style="fill:#ffb380;stroke-width:0.45642108" />
    <path
       inkscape:connector-curvature="0"
       id="path4610"
       d="m 34.874355,277.61513 c -1.861633,0.36473 -3.099098,1.60905 -3.446818,3.77083 -0.406494,2.52756 -0.49185,4.41852 0.0026,6.01152 0.494433,1.59299 2.581367,3.4643 3.957898,3.67781 0.34171,-0.0854 0.07691,-0.032 0.513754,-0.26515 0,0 -2.61081,-0.68846 -3.822919,-4.68452 -0.836479,-2.75769 0.671584,-5.20268 0.671584,-5.20268 0.828732,-1.7349 1.001092,-2.69649 2.123901,-3.30781 z"
       style="fill:#e5915a;fill-opacity:1;stroke-width:0.45642108"
       sodipodi:nodetypes="cccccssc" />
    <path
       sodipodi:nodetypes="cscsc"
       inkscape:connector-curvature="0"
       id="path4612"
       d="m 31.372981,287.22029 c -0.243466,-1.4404 -1.41931,-8.33896 4.418479,-8.21434 1.798483,0.0384 3.960645,0.87915 4.473019,2.5218 -0.569273,-2.58676 0.403199,-3.60479 -4.678291,-4.42165 -4.863723,-0.78186 -5.262751,8.02363 -4.213207,10.11419 z"
       style="fill:#241f1c;stroke:none;stroke-width:0.45562765px;stroke-linecap:butt;stroke-linejoin:miter;stroke-opacity:1" />
    <path
       sodipodi:nodetypes="ccsc"
       inkscape:connector-curvature="0"
       id="path4614"
       d="m 32.482086,285.63233 c 2.025593,1.3319 4.348475,1.06189 6.496221,0.17669 -0.25706,0.42984 -1.247661,3.23336 -3.449978,3.19896 -1.914425,-0.0299 -2.818515,-2.35369 -3.046243,-3.37565 z"
       style="fill:#ffffff;stroke:none;stroke-width:0.63161862px;stroke-linecap:butt;stroke-linejoin:miter;stroke-opacity:1" />
    <path
       sodipodi:nodetypes="ccc"
       inkscape:connector-curvature="0"
       id="path4530"
       d="m 36.963056,282.3798 c -0.05924,1.49683 2.831395,1.05692 3.017954,0.76115 -0.148347,-0.32622 -2.261432,-1.30658 -3.017954,-0.76115 z"
       style="fill:#e5915a;fill-opacity:1;stroke:none;stroke-width:0.26458332px;stroke-linecap:butt;stroke-linejoin:miter;stroke-opacity:1" />
    <path
       style="fill:#241f1c;stroke:none;stroke-width:0.45562765px;stroke-linecap:butt;stroke-linejoin:miter;stroke-opacity:1"
       d="m 37.757179,282.04545 c -0.33465,-0.0191 -0.336007,0.30715 -0.253628,0.30151 0.969374,-0.0664 1.860856,0.42274 2.53423,0.99892 0.112181,0.096 0.158022,-0.12003 0.07572,-0.18319 -0.411692,-0.4685 -1.081096,-1.04442 -2.356319,-1.11724 z"
       id="path4622"
       inkscape:connector-curvature="0"
       sodipodi:nodetypes="ssscs" />
    <path
       style="fill:#241f1c;stroke:none;stroke-width:0.37703246px;stroke-linecap:butt;stroke-linejoin:miter;stroke-opacity:1"
       d="m 38.110427,283.28293 c -0.363793,-0.002 -0.51571,0.8225 -0.08439,0.80182 0.313562,-0.015 0.660732,-0.79902 0.08439,-0.80182 z"
       id="path4626"
       inkscape:connector-curvature="0"
       sodipodi:nodetypes="sss" />
    <path
       sodipodi:nodetypes="ccccscc"
       inkscape:connector-curvature="0"
       id="path4528"
       d="m 35.460736,282.4251 -0.860584,1.66694 1.206674,0.73864 -2.15983,0.46565 c 0,0 0.271333,-0.94054 0.01244,-1.74112 -0.363126,-1.12288 -2.240098,0.15519 -2.148077,-0.94168 1.101708,-0.74723 3.078299,-0.97415 3.949382,-0.18843 z"
       style="fill:#e5915a;fill-opacity:1;stroke:none;stroke-width:0.26458332px;stroke-linecap:butt;stroke-linejoin:miter;stroke-opacity:1" />
    <path
       sodipodi:nodetypes="cscscc"
       inkscape:connector-curvature="0"
       id="path4524"
       d="m 34.117989,282.1184 c -0.958936,-0.15665 -2.040005,0.33254 -2.764247,0.84332 -0.120656,0.0851 -0.03428,-0.2286 0.05356,-0.2838 0.461292,-0.50949 1.374281,-0.95356 2.648415,-0.90009 0.302366,0.0127 0.316708,0.0925 0.06227,0.34057 z"
       style="fill:#241f1c;stroke:none;stroke-width:0.45562765px;stroke-linecap:butt;stroke-linejoin:miter;stroke-opacity:1" />
    <path
       sodipodi:nodetypes="sss"
       inkscape:connector-curvature="0"
       id="path4526"
       d="m 33.201828,283.09163 c 0.348993,0.10273 0.257255,0.9361 -0.149878,0.79219 -0.295978,-0.10462 -0.4029,-0.95533 0.149878,-0.79219 z"
       style="fill:#241f1c;stroke:none;stroke-width:0.37703246px;stroke-linecap:butt;stroke-linejoin:miter;stroke-opacity:1" />
    <path
       sodipodi:nodetypes="scssscs"
       inkscape:connector-curvature="0"
       id="path4534"
       d="m 65.718326,284.09382 c -4.967814,5.37324 -1.557127,7.4013 0.438976,4.53906 0.385659,1.32764 -2.315678,4.48155 -4.358088,3.79733 -2.042411,-0.68422 -3.305364,-3.19251 -2.695685,-4.03654 1.062134,-1.4704 0.900583,-3.07557 0.900583,-3.88102 0,-0.80544 -0.149779,-1.24674 -0.168522,-3.24001 6.115062,-8.07893 10.071767,-1.70972 5.882736,2.82118 z"
       style="fill:#241f1c;stroke:none;stroke-width:0.45562765px;stroke-linecap:butt;stroke-linejoin:miter;stroke-opacity:1" />
    <path
       sodipodi:nodetypes="sscsss"
       inkscape:connector-curvature="0"
       id="path4536"
       d="m 58.935868,286.41665 c -0.214691,1.0242 0.283961,4.42942 2.499843,5.45468 2.215885,1.02526 3.887931,-1.94135 3.887931,-1.94135 0,0 -2.584388,1.64602 -3.212774,-0.37143 -0.970316,-3.11521 -0.138708,-1.92673 1.554428,-4.99401 3.268017,-5.92033 -2.923624,-6.76265 -4.729428,1.85211 z"
       style="fill:#000000;fill-opacity:1;stroke:none;stroke-width:0.26458332px;stroke-linecap:butt;stroke-linejoin:miter;stroke-opacity:1" />
    <path
       sodipodi:nodetypes="czzczzzc"
       inkscape:connector-curvature="0"
       id="path4538"
       d="m 58.623909,277.50235 c 2.415624,-0.0781 3.517911,0.88051 4.299987,3.75317 0.782075,2.87264 0.07508,5.01104 -0.447395,6.40464 -0.522483,1.3936 -2.991416,3.07969 -4.334622,3.41521 -1.376531,-0.21351 -3.462974,-2.08476 -3.957407,-3.67775 -0.494434,-1.593 -0.409484,-3.48421 -0.003,-6.01177 0.406556,-2.52756 2.026747,-3.80531 4.442373,-3.8835 z"
       style="fill:#ffb380;stroke-width:0.45642108" />
    <path
       inkscape:connector-curvature="0"
       id="path4540"
       d="m 57.628455,277.61513 c -1.861634,0.36473 -3.099099,1.60905 -3.446819,3.77083 -0.406494,2.52756 -0.49185,4.41852 0.0026,6.01152 0.494433,1.59299 2.581367,3.4643 3.957899,3.67781 0.34171,-0.0854 0.756368,-0.25884 1.193209,-0.49196 -1.374459,-0.30322 -3.348825,-2.10443 -3.828191,-3.64888 -0.494434,-1.593 -0.409078,-3.48395 -0.0026,-6.01151 0.257206,-1.59906 1.001092,-2.69649 2.123902,-3.30781 z"
       style="fill:#e5915a;fill-opacity:1;stroke-width:0.45642108" />
    <path
       sodipodi:nodetypes="cscsc"
       inkscape:connector-curvature="0"
       id="path4543"
       d="m 54.12708,287.22029 c -0.243466,-1.4404 -1.419309,-8.33896 4.41848,-8.21434 1.798483,0.0384 3.960645,0.87915 4.473019,2.5218 0.02604,-0.7583 1.037637,-3.62084 -5.309715,-4.44504 -8.192882,-1.06384 -4.631328,8.04702 -3.581784,10.13758 z"
       style="fill:#241f1c;stroke:none;stroke-width:0.45562765px;stroke-linecap:butt;stroke-linejoin:miter;stroke-opacity:1" />
    <path
       sodipodi:nodetypes="scs"
       inkscape:connector-curvature="0"
       id="path4545"
       d="m 57.156766,288.83141 c -0.145928,-0.53909 1.218786,0.0593 1.961017,-0.0714 -0.683053,0.54432 -1.745578,0.86728 -1.961017,0.0714 z"
       style="fill:#c83737;stroke:none;stroke-width:0.63161862px;stroke-linecap:butt;stroke-linejoin:miter;stroke-opacity:1" />
    <path
       sodipodi:nodetypes="ccccscc"
       inkscape:connector-curvature="0"
       id="path4547"
       d="m 58.009827,284.36614 -0.556565,2.55561 0.972814,0.43462 -1.706093,0.38317 c 0,0 0.848548,-2.03917 -0.375151,-2.93214 -1.223698,-0.89297 -2.567907,-0.71509 -2.050521,-1.70276 1.839702,-0.54754 3.715516,1.2615 3.715516,1.2615 z"
       style="fill:#e5915a;fill-opacity:1;stroke:none;stroke-width:0.26458332px;stroke-linecap:butt;stroke-linejoin:miter;stroke-opacity:1" />
    <path
       sodipodi:nodetypes="cssssc"
       inkscape:connector-curvature="0"
       id="path4549"
       d="m 54.172572,282.88767 c 1.52016,-0.39913 3.081545,0.43432 3.182824,0.57684 0.101271,0.1425 0.07943,0.51686 -0.22066,0.35382 -1.052114,-0.57163 -2.09658,-0.87577 -2.943977,-0.67654 -0.320344,0.0754 -0.240513,-0.19573 -0.01817,-0.25412 z"
       style="fill:#241f1c;stroke:none;stroke-width:0.45562765px;stroke-linecap:butt;stroke-linejoin:miter;stroke-opacity:1" />
    <path
       sodipodi:nodetypes="ccc"
       inkscape:connector-curvature="0"
       id="path4551"
       d="m 59.427367,283.85416 c 0.391742,2.24313 3.01891,1.25944 3.24949,0.35364 -0.654433,0.14769 -2.418018,-0.0626 -3.24949,-0.35364 z"
       style="fill:#e5915a;fill-opacity:1;stroke:none;stroke-width:0.26458332px;stroke-linecap:butt;stroke-linejoin:miter;stroke-opacity:1" />
    <path
       style="fill:#241f1c;stroke:none;stroke-width:0.45562765px;stroke-linecap:butt;stroke-linejoin:miter;stroke-opacity:1"
       d="m 62.646767,284.38331 c -1.506471,0.44803 -3.118781,-0.25904 -3.22461,-0.39823 -0.10582,-0.13922 -0.138503,-0.59485 0.166701,-0.44159 1.070035,0.53733 2.191002,0.81294 3.031522,0.58641 0.317746,-0.0858 0.246713,0.18789 0.02633,0.25341 z"
       id="path4553"
       inkscape:connector-curvature="0"
       sodipodi:nodetypes="cssssc" />
    <path
       sodipodi:nodetypes="sss"
       inkscape:connector-curvature="0"
       id="path4555"
       d="m 55.692428,284.36079 c -0.297563,0.12397 -0.117826,1.20178 0.212081,1.01326 0.304152,-0.17381 0.329851,-1.23914 -0.212081,-1.01326 z"
       style="fill:#241f1c;stroke:none;stroke-width:0.37703246px;stroke-linecap:butt;stroke-linejoin:miter;stroke-opacity:1" />
    <path
       style="fill:#241f1c;stroke:none;stroke-width:0.37703246px;stroke-linecap:butt;stroke-linejoin:miter;stroke-opacity:1"
       d="m 60.548204,284.6004 c -0.297563,0.12397 -0.117819,1.20177 0.212081,1.01326 0.304151,-0.17381 0.329851,-1.23914 -0.212081,-1.01326 z"
       id="path4557"
       inkscape:connector-curvature="0"
       sodipodi:nodetypes="sss" />
  </g>
</svg>
