<?xml version="1.0" encoding="UTF-8" standalone="no"?>
<!-- Created with Inkscape (http://www.inkscape.org/) -->

<svg
   xmlns:dc="http://purl.org/dc/elements/1.1/"
   xmlns:cc="http://creativecommons.org/ns#"
   xmlns:rdf="http://www.w3.org/1999/02/22-rdf-syntax-ns#"
   xmlns:svg="http://www.w3.org/2000/svg"
   xmlns="http://www.w3.org/2000/svg"
   xmlns:sodipodi="http://sodipodi.sourceforge.net/DTD/sodipodi-0.dtd"
   xmlns:inkscape="http://www.inkscape.org/namespaces/inkscape"
   width="60"
   height="60"
   viewBox="0 0 15.875 15.875"
   version="1.1"
   id="svg8"
   inkscape:version="0.92.1 r15371"
   sodipodi:docname="thumbnail-gif.svg"
   inkscape:export-filename="C:\Users\Lenovo\bitmap.png"
   inkscape:export-xdpi="96"
   inkscape:export-ydpi="96">
  <defs
     id="defs2" />
  <sodipodi:namedview
     id="base"
     pagecolor="#e0e0e0"
     bordercolor="#666666"
     borderopacity="1.0"
     inkscape:pageopacity="0"
     inkscape:pageshadow="2"
     inkscape:zoom="8"
     inkscape:cx="43.430755"
     inkscape:cy="34.521276"
     inkscape:document-units="px"
     inkscape:current-layer="layer1"
     showgrid="false"
     units="px"
     inkscape:window-width="1600"
     inkscape:window-height="837"
     inkscape:window-x="-8"
     inkscape:window-y="-8"
     inkscape:window-maximized="1">
    <inkscape:grid
       type="xygrid"
       id="grid4485" />
  </sodipodi:namedview>
  <metadata
     id="metadata5">
    <rdf:RDF>
      <cc:Work
         rdf:about="">
        <dc:format>image/svg+xml</dc:format>
        <dc:type
           rdf:resource="http://purl.org/dc/dcmitype/StillImage" />
        <dc:title></dc:title>
      </cc:Work>
    </rdf:RDF>
  </metadata>
  <g
     inkscape:label="Layer 1"
     inkscape:groupmode="layer"
     id="layer1"
     transform="translate(0,-281.12499)">
    <path
       style="opacity:0.97000002;vector-effect:none;fill:#ffffff;fill-opacity:0.6;fill-rule:evenodd;stroke:none;stroke-width:0.5291667;stroke-linecap:butt;stroke-linejoin:bevel;stroke-miterlimit:4;stroke-dasharray:none;stroke-dashoffset:0;stroke-opacity:0.2;paint-order:normal"
       d="m 4.0555664,285.62291 c -0.7810421,0 -1.4097331,0.62869 -1.4097331,1.40973 v 3.79512 c 0,0.78104 0.628691,1.40973 1.4097331,1.40973 h 7.7638666 c 0.781042,0 1.409734,-0.62869 1.409734,-1.40973 v -3.79512 c 0,-0.78104 -0.628692,-1.40973 -1.409734,-1.40973 z m 1.784904,1.6061 c 0.2182119,0 0.4271449,0.0205 0.6263182,0.0615 0.200638,0.041 0.3896847,0.10135 0.5668904,0.1819 v 0.67903 c -0.1830636,-0.10398 -0.3656542,-0.1818 -0.5472533,-0.23306 -0.1801347,-0.0513 -0.3610033,-0.0765 -0.5426025,-0.0765 -0.3368373,0 -0.5967335,0.0943 -0.7797974,0.28318 -0.1815992,0.18746 -0.2723348,0.45614 -0.2723348,0.80616 0,0.34708 0.087809,0.61516 0.2635498,0.80408 0.1757413,0.18892 0.4256516,0.28319 0.7493082,0.28319 0.087871,0 0.1692227,-0.005 0.2439128,-0.015 0.076155,-0.0117 0.144077,-0.0293 0.204122,-0.0527 v -0.63717 H 5.8363363 v -0.56689 h 1.3182658 v 1.57717 c -0.2108896,0.10251 -0.4303252,0.17973 -0.6573243,0.23099 -0.2269992,0.0513 -0.4611555,0.0765 -0.7027994,0.0765 -0.5462625,0 -0.9788488,-0.1522 -1.298112,-0.45682 -0.3192634,-0.30608 -0.4790405,-0.7205 -0.4790405,-1.24333 0,-0.52869 0.1627042,-0.94432 0.4878255,-1.24747 0.3251213,-0.30316 0.7700179,-0.45476 1.335319,-0.45476 z m 2.0562051,0.0589 h 0.8459433 v 3.27991 H 7.8966755 Z m 1.6784505,0 h 2.282548 v 0.63924 h -1.436605 v 0.61082 h 1.350822 v 0.63924 h -1.350822 v 1.39061 H 9.575126 Z"
       id="rect4487"
       inkscape:connector-curvature="0" />
    <text
       xml:space="preserve"
       style="font-style:normal;font-variant:normal;font-weight:bold;font-stretch:normal;font-size:4.49897528px;line-height:1.25;font-family:'DejaVu Sans';-inkscape-font-specification:'DejaVu Sans, Bold';font-variant-ligatures:normal;font-variant-caps:normal;font-variant-numeric:normal;font-feature-settings:normal;text-align:start;letter-spacing:0px;word-spacing:0px;writing-mode:lr-tb;text-anchor:start;opacity:0.97000002;fill:#000000;fill-opacity:0.13333333;stroke:none;stroke-width:0.26458332"
       x="3.7933023"
       y="290.56787"
       id="text4498"><tspan
         sodipodi:role="line"
         id="tspan4496"
         x="3.7933023"
         y="290.56787"
         style="font-style:normal;font-variant:normal;font-weight:bold;font-stretch:normal;font-size:4.49897528px;font-family:'DejaVu Sans';-inkscape-font-specification:'DejaVu Sans, Bold';font-variant-ligatures:normal;font-variant-caps:normal;font-variant-numeric:normal;font-feature-settings:normal;text-align:start;writing-mode:lr-tb;text-anchor:start;fill:#000000;fill-opacity:0.13333333;stroke-width:0.26458332">GIF</tspan></text>
  </g>
</svg>
